# xmcd CD database file
#
# Track frame offsets:
#	182
#	29317
#	55747
#	87247
#	125767
#	160502
#	186780
#	196450
#	219745
#	240862
#
# Disc length: 3234 seconds
#
# Revision: 0
# Processed by: cddbd v1.5.1PL0 Copyright (c) Steve Scherf et al.
# Submitted via: CDex 1.51
#
DISCID=800ca00a
DTITLE=LENINGRAD BLUES MACHINE - SAME
DYEAR=1900
DGENRE=Instrumental
TTITLE0=RUSSIAN ASSHOLE
TTITLE1=ROMAN CASTEVET
TTITLE2=WOODSTOCK MONSTER
TTITLE3=MOON and MILKBAR
TTITLE4=BAD BLOSSOM
TTITLE5=RUSSIAN ASSHOLE
TTITLE6=HERE COMES THE HEAVEN
TTITLE7=SKULL&CROSSBONES
TTITLE8=RUSSION ASSHOLE 2
TTITLE9=SO-TO-RI
EXTD=
EXTT0=
EXTT1=
EXTT2=
EXTT3=
EXTT4=
EXTT5=
EXTT6=
EXTT7=
EXTT8=
EXTT9=
PLAYORDER=
